<mxfile host="app.diagrams.net" modified="2021-03-06T14:51:58.563Z" agent="5.0 (Windows)" etag="5ev_yAZ4p1JZFMqcqiQe" version="14.4.4" type="github">
  <diagram id="97s5W6zogUnw-100F3bP" name="Page-1">
    <mxGraphModel dx="862" dy="451" grid="1" gridSize="10" guides="1" tooltips="1" connect="1" arrows="1" fold="1" page="1" pageScale="1" pageWidth="850" pageHeight="1100" math="0" shadow="0">
      <root>
        <mxCell id="0" />
        <mxCell id="1" parent="0" />
        <mxCell id="4YyB8-v-8qMEgtiMz1is-1" value="ลูกค้า" style="rounded=0;whiteSpace=wrap;html=1;" vertex="1" parent="1">
          <mxGeometry x="40" y="80" width="120" height="60" as="geometry" />
        </mxCell>
      </root>
    </mxGraphModel>
  </diagram>
</mxfile>
